<?xml version="1.0" standalone="no"?>
<!DOCTYPE svg PUBLIC "-//W3C//DTD SVG 20010904//EN"
 "http://www.w3.org/TR/2001/REC-SVG-20010904/DTD/svg10.dtd">
<svg version="1.0" xmlns="http://www.w3.org/2000/svg"
 width="50pt" height="100pt" viewBox="0 0 5000.000000 4000.000000"
 preserveAspectRatio="xMidYMid meet">

<g transform="translate(0.000000,4000.000000) scale(0.100000,-0.100000)"
fill="#000000" stroke="none">
<path d="M24987 29185 c-4 -11 -47 -218 -97 -460 -49 -243 -99 -470 -111 -505
-86 -262 -300 -474 -564 -558 -33 -10 -266 -61 -517 -112 -252 -52 -457 -95
-455 -96 1 -2 203 -44 447 -94 245 -50 476 -100 515 -111 235 -70 440 -251
545 -481 38 -84 44 -111 145 -608 47 -234 89 -432 92 -440 3 -8 25 80 49 195
24 116 69 331 99 478 30 147 67 298 82 335 87 219 267 404 481 493 78 32 124
43 692 159 189 39 345 72 347 74 3 3 -39 12 -547 116 -190 38 -376 79 -415 91
-257 76 -484 296 -568 549 -14 41 -67 278 -117 525 -106 523 -95 475 -103 450z"/>
<path d="M21021 28300 c-1 -3 -23 -113 -51 -243 -56 -268 -78 -325 -162 -403
-77 -72 -146 -98 -408 -153 -129 -27 -230 -50 -223 -50 6 -1 112 -22 235 -47
260 -53 323 -78 402 -157 89 -89 102 -122 166 -436 21 -106 41 -195 42 -197 2
-1 25 101 51 229 55 270 78 327 162 406 84 79 147 104 405 156 123 25 229 45
235 46 5 0 -98 23 -230 50 -133 28 -264 61 -293 74 -73 34 -166 125 -202 199
-21 44 -43 125 -75 286 -44 214 -52 252 -54 240z"/>
<path d="M16240 23295 l-1875 -1875 5317 -5317 5318 -5318 5318 5318 5317
5317 -1870 1870 c-1028 1028 -1874 1871 -1880 1872 -8 3 -37 -61 -160 -362
-24 -58 -66 -159 -93 -225 -27 -66 -77 -185 -110 -265 -33 -80 -106 -255 -162
-390 -56 -135 -106 -255 -110 -266 -8 -19 125 -156 1090 -1120 605 -605 1100
-1104 1100 -1109 0 -6 -1899 -1909 -4220 -4230 l-4220 -4220 -4220 4220
c-2321 2321 -4220 4224 -4220 4230 0 5 495 504 1100 1109 965 964 1098 1101
1090 1120 -4 11 -54 131 -110 266 -56 135 -129 310 -162 390 -33 80 -83 199
-110 265 -27 66 -69 167 -93 225 -118 288 -147 356 -153 362 -4 4 -851 -836
-1882 -1867z"/>
</g>
</svg>
